<?xml version="1.0" encoding="UTF-8" standalone="no"?>
<!DOCTYPE svg PUBLIC "-//W3C//DTD SVG 1.1//EN"
 "http://www.w3.org/Graphics/SVG/1.1/DTD/svg11.dtd">
<!-- Generated by graphviz version 13.1.2 (20250808.2320)
 -->
<!-- Title: G Pages: 1 -->
<svg width="1142pt" height="745pt"
 viewBox="0.00 0.00 1142.00 745.00" xmlns="http://www.w3.org/2000/svg" xmlns:xlink="http://www.w3.org/1999/xlink">
<g id="graph0" class="graph" transform="scale(1 1) rotate(0) translate(4 740.93)">
<title>G</title><style>.edge>path:hover{stroke-width:8}</style>
<polygon fill="white" stroke="none" points="-4,4 -4,-740.93 1137.81,-740.93 1137.81,4 -4,4"/>
<!-- amps_simulation -->
<g id="node1" class="node">
<title>amps_simulation</title><style>.edge>path:hover{stroke-width:8}</style>
<polygon fill="blue" stroke="black" points="946.16,-36 856.66,-36 856.66,0 946.16,0 946.16,-36"/>
<text xml:space="preserve" text-anchor="middle" x="901.41" y="-14.5" font-family="Helvetica,sans-Serif" font-size="10.00" fill="white">amps_simulation</text>
</g>
<!-- amps_simulation_core -->
<g id="node2" class="node">
<title>amps_simulation_core</title><style>.edge>path:hover{stroke-width:8}</style>
<polygon fill="blue" stroke="black" points="910.66,-193.11 818.16,-193.11 818.16,-157.11 910.66,-157.11 910.66,-193.11"/>
<text xml:space="preserve" text-anchor="middle" x="864.41" y="-177.61" font-family="Helvetica,sans-Serif" font-size="10.00" fill="white">amps_simulation.</text>
<text xml:space="preserve" text-anchor="middle" x="864.41" y="-165.61" font-family="Helvetica,sans-Serif" font-size="10.00" fill="white">core</text>
</g>
<!-- amps_simulation_core&#45;&gt;amps_simulation -->
<g id="edge1" class="edge">
<title>amps_simulation_core&#45;&gt;amps_simulation</title><style>.edge>path:hover{stroke-width:8}</style>
<path fill="none" stroke="black" d="M894.16,-156.88C915.12,-142.26 939.32,-119.19 938.41,-91"/>
<path fill="none" stroke="black" d="M938.41,-89C937.91,-73.5 930.66,-58.06 922.71,-45.65"/>
<polygon fill="blue" stroke="black" points="925.73,-43.86 917.16,-37.64 919.98,-47.85 925.73,-43.86"/>
</g>
<!-- amps_simulation_run_simulation -->
<g id="node14" class="node">
<title>amps_simulation_run_simulation</title><style>.edge>path:hover{stroke-width:8}</style>
<polygon fill="blue" stroke="black" points="910.66,-108 818.16,-108 818.16,-72 910.66,-72 910.66,-108"/>
<text xml:space="preserve" text-anchor="middle" x="864.41" y="-92.5" font-family="Helvetica,sans-Serif" font-size="10.00" fill="white">amps_simulation.</text>
<text xml:space="preserve" text-anchor="middle" x="864.41" y="-80.5" font-family="Helvetica,sans-Serif" font-size="10.00" fill="white">run_simulation</text>
</g>
<!-- amps_simulation_core&#45;&gt;amps_simulation_run_simulation -->
<g id="edge2" class="edge">
<title>amps_simulation_core&#45;&gt;amps_simulation_run_simulation</title><style>.edge>path:hover{stroke-width:8}</style>
<path fill="none" stroke="black" d="M864.41,-156.89C864.41,-146.15 864.41,-132.07 864.41,-119.68"/>
<polygon fill="blue" stroke="black" points="867.91,-120 864.41,-110 860.91,-120 867.91,-120"/>
</g>
<!-- amps_simulation_core_components -->
<g id="node3" class="node">
<title>amps_simulation_core_components</title><style>.edge>path:hover{stroke-width:8}</style>
<ellipse fill="#c82323" stroke="black" cx="399.41" cy="-371.56" rx="65.41" ry="31.11"/>
<text xml:space="preserve" text-anchor="middle" x="399.41" y="-380.06" font-family="Helvetica,sans-Serif" font-size="10.00" fill="#ffffff">amps_simulation.</text>
<text xml:space="preserve" text-anchor="middle" x="399.41" y="-368.06" font-family="Helvetica,sans-Serif" font-size="10.00" fill="#ffffff">core.</text>
<text xml:space="preserve" text-anchor="middle" x="399.41" y="-356.06" font-family="Helvetica,sans-Serif" font-size="10.00" fill="#ffffff">components</text>
</g>
<!-- amps_simulation_core_dae_model -->
<g id="node5" class="node">
<title>amps_simulation_core_dae_model</title><style>.edge>path:hover{stroke-width:8}</style>
<ellipse fill="#993333" stroke="black" cx="437.41" cy="-273.34" rx="65.41" ry="31.11"/>
<text xml:space="preserve" text-anchor="middle" x="437.41" y="-281.84" font-family="Helvetica,sans-Serif" font-size="10.00" fill="#ffffff">amps_simulation.</text>
<text xml:space="preserve" text-anchor="middle" x="437.41" y="-269.84" font-family="Helvetica,sans-Serif" font-size="10.00" fill="#ffffff">core.</text>
<text xml:space="preserve" text-anchor="middle" x="437.41" y="-257.84" font-family="Helvetica,sans-Serif" font-size="10.00" fill="#ffffff">dae_model</text>
</g>
<!-- amps_simulation_core_components&#45;&gt;amps_simulation_core_dae_model -->
<g id="edge3" class="edge">
<title>amps_simulation_core_components&#45;&gt;amps_simulation_core_dae_model</title><style>.edge>path:hover{stroke-width:8}</style>
<path fill="none" stroke="black" d="M411.22,-340.64C414.44,-332.5 417.98,-323.54 421.39,-314.91"/>
<polygon fill="#c82323" stroke="black" points="424.63,-316.23 425.04,-305.65 418.12,-313.66 424.63,-316.23"/>
</g>
<!-- amps_simulation_core_engine -->
<g id="node7" class="node">
<title>amps_simulation_core_engine</title><style>.edge>path:hover{stroke-width:8}</style>
<ellipse fill="#793434" stroke="black" cx="158.41" cy="-175.11" rx="65.41" ry="31.11"/>
<text xml:space="preserve" text-anchor="middle" x="158.41" y="-183.61" font-family="Helvetica,sans-Serif" font-size="10.00" fill="#ffffff">amps_simulation.</text>
<text xml:space="preserve" text-anchor="middle" x="158.41" y="-171.61" font-family="Helvetica,sans-Serif" font-size="10.00" fill="#ffffff">core.</text>
<text xml:space="preserve" text-anchor="middle" x="158.41" y="-159.61" font-family="Helvetica,sans-Serif" font-size="10.00" fill="#ffffff">engine</text>
</g>
<!-- amps_simulation_core_components&#45;&gt;amps_simulation_core_engine -->
<g id="edge4" class="edge">
<title>amps_simulation_core_components&#45;&gt;amps_simulation_core_engine</title><style>.edge>path:hover{stroke-width:8}</style>
<path fill="none" stroke="black" d="M382.1,-341.34C371.03,-322.4 356.52,-297.1 344.41,-274.34"/>
</g>
<!-- amps_simulation_core_parser_networkx -->
<g id="node10" class="node">
<title>amps_simulation_core_parser_networkx</title><style>.edge>path:hover{stroke-width:8}</style>
<ellipse fill="#b83d3d" stroke="black" cx="623.41" cy="-273.34" rx="65.41" ry="31.11"/>
<text xml:space="preserve" text-anchor="middle" x="623.41" y="-281.84" font-family="Helvetica,sans-Serif" font-size="10.00" fill="#ffffff">amps_simulation.</text>
<text xml:space="preserve" text-anchor="middle" x="623.41" y="-269.84" font-family="Helvetica,sans-Serif" font-size="10.00" fill="#ffffff">core.</text>
<text xml:space="preserve" text-anchor="middle" x="623.41" y="-257.84" font-family="Helvetica,sans-Serif" font-size="10.00" fill="#ffffff">parser_networkx</text>
</g>
<!-- amps_simulation_core_components&#45;&gt;amps_simulation_core_parser_networkx -->
<g id="edge5" class="edge">
<title>amps_simulation_core_components&#45;&gt;amps_simulation_core_parser_networkx</title><style>.edge>path:hover{stroke-width:8}</style>
<path fill="none" stroke="black" d="M447.19,-350.04C481.69,-335.22 528.46,-315.12 565.15,-299.36"/>
<polygon fill="#c82323" stroke="black" points="566.5,-302.59 574.31,-295.43 563.74,-296.16 566.5,-302.59"/>
</g>
<!-- amps_simulation_core_control_signal -->
<g id="node4" class="node">
<title>amps_simulation_core_control_signal</title><style>.edge>path:hover{stroke-width:8}</style>
<ellipse fill="#b34c4c" stroke="black" cx="623.41" cy="-371.56" rx="65.41" ry="31.11"/>
<text xml:space="preserve" text-anchor="middle" x="623.41" y="-380.06" font-family="Helvetica,sans-Serif" font-size="10.00" fill="#ffffff">amps_simulation.</text>
<text xml:space="preserve" text-anchor="middle" x="623.41" y="-368.06" font-family="Helvetica,sans-Serif" font-size="10.00" fill="#ffffff">core.</text>
<text xml:space="preserve" text-anchor="middle" x="623.41" y="-356.06" font-family="Helvetica,sans-Serif" font-size="10.00" fill="#ffffff">control_signal</text>
</g>
<!-- amps_simulation_core_dae_model&#45;&gt;amps_simulation_core_engine -->
<g id="edge6" class="edge">
<title>amps_simulation_core_dae_model&#45;&gt;amps_simulation_core_engine</title><style>.edge>path:hover{stroke-width:8}</style>
<path fill="none" stroke="black" d="M387.38,-252.88C377.79,-249.26 367.81,-245.57 358.41,-242.23 313.37,-226.21 262.18,-209.31 222.87,-196.61"/>
<polygon fill="#993333" stroke="black" points="224.14,-193.34 213.55,-193.61 221.99,-200 224.14,-193.34"/>
</g>
<!-- amps_simulation_core_electrical_model -->
<g id="node6" class="node">
<title>amps_simulation_core_electrical_model</title><style>.edge>path:hover{stroke-width:8}</style>
<ellipse fill="#d92626" stroke="black" cx="923.41" cy="-371.56" rx="65.41" ry="31.11"/>
<text xml:space="preserve" text-anchor="middle" x="923.41" y="-380.06" font-family="Helvetica,sans-Serif" font-size="10.00" fill="#ffffff">amps_simulation.</text>
<text xml:space="preserve" text-anchor="middle" x="923.41" y="-368.06" font-family="Helvetica,sans-Serif" font-size="10.00" fill="#ffffff">core.</text>
<text xml:space="preserve" text-anchor="middle" x="923.41" y="-356.06" font-family="Helvetica,sans-Serif" font-size="10.00" fill="#ffffff">electrical_model</text>
</g>
<!-- amps_simulation_core_electrical_model&#45;&gt;amps_simulation_core -->
<g id="edge7" class="edge">
<title>amps_simulation_core_electrical_model&#45;&gt;amps_simulation_core</title><style>.edge>path:hover{stroke-width:8}</style>
<path fill="none" stroke="black" d="M902.64,-341.88C895.48,-330.69 888.09,-317.45 883.41,-304.45 871.55,-271.52 867.09,-231.28 865.41,-204.74"/>
<polygon fill="#d92626" stroke="black" points="868.91,-204.56 864.89,-194.76 861.92,-204.93 868.91,-204.56"/>
</g>
<!-- amps_simulation_core_Simulation -->
<g id="node11" class="node">
<title>amps_simulation_core_Simulation</title><style>.edge>path:hover{stroke-width:8}</style>
<polygon fill="blue" stroke="black" points="984.66,-295.34 892.16,-295.34 892.16,-251.34 984.66,-251.34 984.66,-295.34"/>
<text xml:space="preserve" text-anchor="middle" x="938.41" y="-281.84" font-family="Helvetica,sans-Serif" font-size="10.00" fill="white">amps_simulation.</text>
<text xml:space="preserve" text-anchor="middle" x="938.41" y="-269.84" font-family="Helvetica,sans-Serif" font-size="10.00" fill="white">core.</text>
<text xml:space="preserve" text-anchor="middle" x="938.41" y="-257.84" font-family="Helvetica,sans-Serif" font-size="10.00" fill="white">Simulation</text>
</g>
<!-- amps_simulation_core_electrical_model&#45;&gt;amps_simulation_core_Simulation -->
<g id="edge8" class="edge">
<title>amps_simulation_core_electrical_model&#45;&gt;amps_simulation_core_Simulation</title><style>.edge>path:hover{stroke-width:8}</style>
<path fill="none" stroke="black" d="M928.15,-340.12C929.8,-329.52 931.66,-317.6 933.34,-306.85"/>
<polygon fill="#d92626" stroke="black" points="936.75,-307.67 934.84,-297.25 929.84,-306.59 936.75,-307.67"/>
</g>
<!-- amps_simulation_core_simulation -->
<g id="node12" class="node">
<title>amps_simulation_core_simulation</title><style>.edge>path:hover{stroke-width:8}</style>
<polygon fill="blue" stroke="black" points="836.66,-295.34 744.16,-295.34 744.16,-251.34 836.66,-251.34 836.66,-295.34"/>
<text xml:space="preserve" text-anchor="middle" x="790.41" y="-281.84" font-family="Helvetica,sans-Serif" font-size="10.00" fill="white">amps_simulation.</text>
<text xml:space="preserve" text-anchor="middle" x="790.41" y="-269.84" font-family="Helvetica,sans-Serif" font-size="10.00" fill="white">core.</text>
<text xml:space="preserve" text-anchor="middle" x="790.41" y="-257.84" font-family="Helvetica,sans-Serif" font-size="10.00" fill="white">simulation</text>
</g>
<!-- amps_simulation_core_electrical_model&#45;&gt;amps_simulation_core_simulation -->
<g id="edge9" class="edge">
<title>amps_simulation_core_electrical_model&#45;&gt;amps_simulation_core_simulation</title><style>.edge>path:hover{stroke-width:8}</style>
<path fill="none" stroke="black" d="M888.11,-345.03C869.94,-331.88 847.75,-315.83 829.12,-302.34"/>
<polygon fill="#d92626" stroke="black" points="831.39,-299.67 821.24,-296.64 827.29,-305.34 831.39,-299.67"/>
</g>
<!-- amps_simulation_core_engine_settings -->
<g id="node8" class="node">
<title>amps_simulation_core_engine_settings</title><style>.edge>path:hover{stroke-width:8}</style>
<ellipse fill="#c04040" stroke="black" cx="251.41" cy="-273.34" rx="65.41" ry="31.11"/>
<text xml:space="preserve" text-anchor="middle" x="251.41" y="-281.84" font-family="Helvetica,sans-Serif" font-size="10.00" fill="#ffffff">amps_simulation.</text>
<text xml:space="preserve" text-anchor="middle" x="251.41" y="-269.84" font-family="Helvetica,sans-Serif" font-size="10.00" fill="#ffffff">core.</text>
<text xml:space="preserve" text-anchor="middle" x="251.41" y="-257.84" font-family="Helvetica,sans-Serif" font-size="10.00" fill="#ffffff">engine_settings</text>
</g>
<!-- amps_simulation_core_engine_settings&#45;&gt;amps_simulation_core_engine -->
<g id="edge10" class="edge">
<title>amps_simulation_core_engine_settings&#45;&gt;amps_simulation_core_engine</title><style>.edge>path:hover{stroke-width:8}</style>
<path fill="none" stroke="black" d="M224.51,-244.51C214.68,-234.33 203.41,-222.68 193,-211.91"/>
<polygon fill="#c04040" stroke="black" points="195.76,-209.73 186.3,-204.97 190.73,-214.59 195.76,-209.73"/>
</g>
<!-- amps_simulation_core_parser -->
<g id="node9" class="node">
<title>amps_simulation_core_parser</title><style>.edge>path:hover{stroke-width:8}</style>
<ellipse fill="#c24747" stroke="black" cx="65.41" cy="-273.34" rx="65.41" ry="31.11"/>
<text xml:space="preserve" text-anchor="middle" x="65.41" y="-281.84" font-family="Helvetica,sans-Serif" font-size="10.00" fill="#ffffff">amps_simulation.</text>
<text xml:space="preserve" text-anchor="middle" x="65.41" y="-269.84" font-family="Helvetica,sans-Serif" font-size="10.00" fill="#ffffff">core.</text>
<text xml:space="preserve" text-anchor="middle" x="65.41" y="-257.84" font-family="Helvetica,sans-Serif" font-size="10.00" fill="#ffffff">parser</text>
</g>
<!-- amps_simulation_core_parser&#45;&gt;amps_simulation_run_simulation -->
<g id="edge11" class="edge">
<title>amps_simulation_core_parser&#45;&gt;amps_simulation_run_simulation</title><style>.edge>path:hover{stroke-width:8}</style>
<path fill="none" stroke="black" d="M58.15,-242.23C55,-222.23 54.21,-196.07 65.41,-176.11"/>
<path fill="none" stroke="black" d="M65.41,-174.11C73.15,-160.31 70.82,-152.11 84.41,-144 145.91,-107.31 636.11,-95.09 806.38,-91.94"/>
<polygon fill="#c24747" stroke="black" points="806.39,-95.44 816.33,-91.75 806.26,-88.44 806.39,-95.44"/>
</g>
<!-- amps_simulation_core_parser_networkx&#45;&gt;amps_simulation_core -->
<g id="edge12" class="edge">
<title>amps_simulation_core_parser_networkx&#45;&gt;amps_simulation_core</title><style>.edge>path:hover{stroke-width:8}</style>
<path fill="none" stroke="black" d="M672.76,-252.63C712.71,-236.68 768.91,-214.24 810.12,-197.79"/>
<polygon fill="#b83d3d" stroke="black" points="811.39,-201.05 819.38,-194.09 808.8,-194.55 811.39,-201.05"/>
</g>
<!-- amps_simulation_core_Simulation&#45;&gt;amps_simulation -->
<g id="edge13" class="edge">
<title>amps_simulation_core_Simulation&#45;&gt;amps_simulation</title><style>.edge>path:hover{stroke-width:8}</style>
<path fill="none" stroke="black" d="M938.85,-251.11C939.46,-217.25 940.28,-148.9 938.41,-91"/>
</g>
<!-- amps_simulation_core_simulation&#45;&gt;amps_simulation_core -->
<g id="edge14" class="edge">
<title>amps_simulation_core_simulation&#45;&gt;amps_simulation_core</title><style>.edge>path:hover{stroke-width:8}</style>
<path fill="none" stroke="black" d="M806.83,-250.98C817.83,-236.68 832.39,-217.74 844.12,-202.5"/>
<polygon fill="blue" stroke="black" points="846.75,-204.81 850.07,-194.75 841.2,-200.55 846.75,-204.81"/>
</g>
<!-- amps_simulation_core_simulation&#45;&gt;amps_simulation_run_simulation -->
<g id="edge15" class="edge">
<title>amps_simulation_core_simulation&#45;&gt;amps_simulation_run_simulation</title><style>.edge>path:hover{stroke-width:8}</style>
<path fill="none" stroke="black" d="M789.47,-251.08C789.19,-224.54 791.67,-178.44 809.41,-144 814.78,-133.57 823.01,-124.01 831.48,-115.98"/>
<polygon fill="blue" stroke="black" points="833.65,-118.73 838.8,-109.48 829,-113.5 833.65,-118.73"/>
</g>
<!-- amps_simulation_core_utils -->
<g id="node13" class="node">
<title>amps_simulation_core_utils</title><style>.edge>path:hover{stroke-width:8}</style>
<ellipse fill="#bc2f2f" stroke="black" cx="1068.41" cy="-273.34" rx="65.41" ry="31.11"/>
<text xml:space="preserve" text-anchor="middle" x="1068.41" y="-281.84" font-family="Helvetica,sans-Serif" font-size="10.00" fill="#ffffff">amps_simulation.</text>
<text xml:space="preserve" text-anchor="middle" x="1068.41" y="-269.84" font-family="Helvetica,sans-Serif" font-size="10.00" fill="#ffffff">core.</text>
<text xml:space="preserve" text-anchor="middle" x="1068.41" y="-257.84" font-family="Helvetica,sans-Serif" font-size="10.00" fill="#ffffff">utils</text>
</g>
<!-- amps_simulation_core_utils&#45;&gt;amps_simulation_core -->
<g id="edge16" class="edge">
<title>amps_simulation_core_utils&#45;&gt;amps_simulation_core</title><style>.edge>path:hover{stroke-width:8}</style>
<path fill="none" stroke="black" d="M1022.63,-250.74C989.41,-235.08 944.63,-213.95 911.18,-198.18"/>
<polygon fill="#bc2f2f" stroke="black" points="913.1,-195.21 902.56,-194.11 910.12,-201.54 913.1,-195.21"/>
</g>
<!-- amps_simulation_core_utils&#45;&gt;amps_simulation_run_simulation -->
<g id="edge17" class="edge">
<title>amps_simulation_core_utils&#45;&gt;amps_simulation_run_simulation</title><style>.edge>path:hover{stroke-width:8}</style>
<path fill="none" stroke="black" d="M1038.31,-245.58C999.01,-210.65 930.74,-149.96 892.47,-115.95"/>
<polygon fill="#bc2f2f" stroke="black" points="894.81,-113.34 885.01,-109.31 890.16,-118.57 894.81,-113.34"/>
</g>
<!-- amps_simulation_run_simulation&#45;&gt;amps_simulation -->
<g id="edge18" class="edge">
<title>amps_simulation_run_simulation&#45;&gt;amps_simulation</title><style>.edge>path:hover{stroke-width:8}</style>
<path fill="none" stroke="black" d="M873.55,-71.7C877.63,-63.98 882.53,-54.71 887.08,-46.11"/>
<polygon fill="blue" stroke="black" points="890.08,-47.92 891.66,-37.44 883.89,-44.65 890.08,-47.92"/>
</g>
<!-- control -->
<g id="node15" class="node">
<title>control</title><style>.edge>path:hover{stroke-width:8}</style>
<ellipse fill="#c0a040" stroke="black" cx="251.41" cy="-456.68" rx="27.21" ry="18"/>
<text xml:space="preserve" text-anchor="middle" x="251.41" y="-453.18" font-family="Helvetica,sans-Serif" font-size="10.00" fill="#000000">control</text>
</g>
<!-- control&#45;&gt;amps_simulation_core_engine -->
<g id="edge19" class="edge">
<title>control&#45;&gt;amps_simulation_core_engine</title><style>.edge>path:hover{stroke-width:8}</style>
<path fill="none" stroke="black" d="M344.41,-272.34C336.97,-258.37 337.59,-252.33 325.41,-242.23 297.27,-218.88 259.87,-203.06 227.61,-192.75"/>
<polygon fill="#c0a040" stroke="black" points="228.91,-189.49 218.33,-189.91 226.86,-196.19 228.91,-189.49"/>
<path fill="none" stroke="black" d="M255.17,-438.73C260.84,-415.41 273.02,-372.65 292.41,-340.45 311.69,-308.42 361.98,-307.34 344.41,-274.34"/>
</g>
<!-- matplotlib -->
<g id="node16" class="node">
<title>matplotlib</title><style>.edge>path:hover{stroke-width:8}</style>
<polygon fill="blue" stroke="black" points="1048.41,-551.3 990.41,-551.3 990.41,-515.3 1048.41,-515.3 1048.41,-551.3"/>
<text xml:space="preserve" text-anchor="middle" x="1019.41" y="-529.8" font-family="Helvetica,sans-Serif" font-size="10.00" fill="white">matplotlib</text>
</g>
<!-- matplotlib&#45;&gt;amps_simulation_core_utils -->
<g id="edge20" class="edge">
<title>matplotlib&#45;&gt;amps_simulation_core_utils</title><style>.edge>path:hover{stroke-width:8}</style>
<path fill="none" stroke="black" d="M1029.57,-514.84C1037.66,-500.1 1048.55,-478.18 1054.41,-457.68"/>
</g>
<!-- matplotlib_pyplot -->
<g id="node17" class="node">
<title>matplotlib_pyplot</title><style>.edge>path:hover{stroke-width:8}</style>
<polygon fill="blue" stroke="black" points="1020.91,-627.93 959.91,-627.93 959.91,-591.93 1020.91,-591.93 1020.91,-627.93"/>
<text xml:space="preserve" text-anchor="middle" x="990.41" y="-612.43" font-family="Helvetica,sans-Serif" font-size="10.00" fill="white">matplotlib.</text>
<text xml:space="preserve" text-anchor="middle" x="990.41" y="-600.43" font-family="Helvetica,sans-Serif" font-size="10.00" fill="white">pyplot</text>
</g>
<!-- matplotlib_pyplot&#45;&gt;amps_simulation_core_utils -->
<g id="edge21" class="edge">
<title>matplotlib_pyplot&#45;&gt;amps_simulation_core_utils</title><style>.edge>path:hover{stroke-width:8}</style>
<path fill="none" stroke="black" d="M1021.18,-593.06C1034.95,-584.18 1049.78,-571.68 1057.41,-555.93 1076.44,-516.61 1042.41,-499.69 1054.41,-457.68"/>
</g>
<!-- matplotlib_pyplot&#45;&gt;matplotlib -->
<g id="edge22" class="edge">
<title>matplotlib_pyplot&#45;&gt;matplotlib</title><style>.edge>path:hover{stroke-width:8}</style>
<path fill="none" stroke="black" d="M997.13,-591.62C1000.51,-582.93 1004.69,-572.17 1008.52,-562.33"/>
<polygon fill="blue" stroke="black" points="1011.71,-563.78 1012.07,-553.19 1005.18,-561.24 1011.71,-563.78"/>
</g>
<!-- networkx -->
<g id="node18" class="node">
<title>networkx</title><style>.edge>path:hover{stroke-width:8}</style>
<ellipse fill="#26d953" stroke="black" cx="554.41" cy="-533.3" rx="33.52" ry="18"/>
<text xml:space="preserve" text-anchor="middle" x="554.41" y="-529.8" font-family="Helvetica,sans-Serif" font-size="10.00" fill="#000000">networkx</text>
</g>
<!-- networkx&#45;&gt;amps_simulation_core_dae_model -->
<g id="edge23" class="edge">
<title>networkx&#45;&gt;amps_simulation_core_dae_model</title><style>.edge>path:hover{stroke-width:8}</style>
<path fill="none" stroke="black" d="M550.12,-515.17C543.21,-486.07 530.41,-425.01 530.41,-372.56"/>
<path fill="none" stroke="black" d="M530.41,-370.56C529.15,-343.25 509.39,-320.71 488.41,-304.33"/>
<polygon fill="#26d953" stroke="black" points="490.74,-301.7 480.61,-298.59 486.59,-307.34 490.74,-301.7"/>
</g>
<!-- networkx&#45;&gt;amps_simulation_core_engine -->
<g id="edge24" class="edge">
<title>networkx&#45;&gt;amps_simulation_core_engine</title><style>.edge>path:hover{stroke-width:8}</style>
<path fill="none" stroke="black" d="M530.41,-370.56C527.75,-312.96 551.39,-283.77 511.41,-242.23 474.1,-203.47 326.71,-186.92 234.59,-180.25"/>
<polygon fill="#26d953" stroke="black" points="235.09,-176.78 224.87,-179.57 234.6,-183.76 235.09,-176.78"/>
</g>
<!-- networkx&#45;&gt;amps_simulation_core_parser_networkx -->
<g id="edge25" class="edge">
<title>networkx&#45;&gt;amps_simulation_core_parser_networkx</title><style>.edge>path:hover{stroke-width:8}</style>
<path fill="none" stroke="black" d="M530.41,-370.56C530.41,-343.02 550.36,-320.35 571.77,-303.94"/>
<polygon fill="#26d953" stroke="black" points="573.7,-306.87 579.76,-298.19 569.6,-301.19 573.7,-306.87"/>
</g>
<!-- numpy -->
<g id="node19" class="node">
<title>numpy</title><style>.edge>path:hover{stroke-width:8}</style>
<ellipse fill="#06f9f9" stroke="black" cx="792.41" cy="-718.93" rx="27.21" ry="18"/>
<text xml:space="preserve" text-anchor="middle" x="792.41" y="-715.43" font-family="Helvetica,sans-Serif" font-size="10.00" fill="#000000">numpy</text>
</g>
<!-- numpy&#45;&gt;amps_simulation_core_dae_model -->
<g id="edge26" class="edge">
<title>numpy&#45;&gt;amps_simulation_core_dae_model</title><style>.edge>path:hover{stroke-width:8}</style>
<path fill="none" stroke="black" d="M303.41,-608.93C276.61,-595.59 309.52,-365.82 325.41,-340.45 337.04,-321.88 355.95,-307.89 374.95,-297.67"/>
<polygon fill="#06f9f9" stroke="black" points="376.46,-300.83 383.81,-293.21 373.3,-294.58 376.46,-300.83"/>
</g>
<!-- numpy&#45;&gt;amps_simulation_core_engine -->
<g id="edge27" class="edge">
<title>numpy&#45;&gt;amps_simulation_core_engine</title><style>.edge>path:hover{stroke-width:8}</style>
<path fill="none" stroke="black" d="M158.41,-272.34C154.45,-254.72 153.83,-234.84 154.44,-217.73"/>
<polygon fill="#06f9f9" stroke="black" points="157.93,-218.07 154.95,-207.91 150.94,-217.71 157.93,-218.07"/>
</g>
<!-- numpy&#45;&gt;amps_simulation_core_Simulation -->
<g id="edge28" class="edge">
<title>numpy&#45;&gt;amps_simulation_core_Simulation</title><style>.edge>path:hover{stroke-width:8}</style>
<path fill="none" stroke="black" d="M792.41,-663.93C777.64,-623.02 848.72,-654.17 883.41,-627.93 915.52,-603.64 921.04,-592.26 938.41,-555.93 957.8,-515.37 938.55,-495.78 962.41,-457.68"/>
</g>
<!-- numpy&#45;&gt;amps_simulation_core_simulation -->
<g id="edge29" class="edge">
<title>numpy&#45;&gt;amps_simulation_core_simulation</title><style>.edge>path:hover{stroke-width:8}</style>
<path fill="none" stroke="black" d="M792.41,-608.93C779.31,-533.65 803.15,-513.93 816.41,-438.68 821.62,-409.1 839.27,-401.26 830.41,-372.56"/>
<path fill="none" stroke="black" d="M830.41,-370.56C822.75,-348.68 812.74,-324.6 804.65,-306"/>
<polygon fill="#06f9f9" stroke="black" points="807.85,-304.6 800.62,-296.85 801.45,-307.42 807.85,-304.6"/>
</g>
<!-- numpy&#45;&gt;amps_simulation_run_simulation -->
<g id="edge30" class="edge">
<title>numpy&#45;&gt;amps_simulation_run_simulation</title><style>.edge>path:hover{stroke-width:8}</style>
<path fill="none" stroke="black" d="M303.41,-608.93C157.25,-538.9 193.95,-432.47 158.41,-274.34"/>
<path fill="none" stroke="black" d="M792.41,-663.93C774.54,-614.7 370.58,-648.48 322.41,-627.93 311.98,-623.49 313.02,-616.93 303.41,-610.93"/>
<path fill="none" stroke="black" d="M795.32,-700.71C796.42,-690.08 796.55,-676.35 792.41,-664.93"/>
<path fill="none" stroke="black" d="M158.41,-272.34C153.73,-257.22 150.5,-253.51 139.41,-242.23 118.92,-221.4 104.89,-227.06 84.41,-206.23 73.31,-194.94 57.66,-189.91 65.41,-176.11"/>
</g>
<!-- numpy&#45;&gt;matplotlib_pyplot -->
<g id="edge31" class="edge">
<title>numpy&#45;&gt;matplotlib_pyplot</title><style>.edge>path:hover{stroke-width:8}</style>
<path fill="none" stroke="black" d="M792.41,-663.93C791.04,-660.16 890,-635.36 948.51,-621.06"/>
<polygon fill="#06f9f9" stroke="black" points="949.28,-624.48 958.16,-618.71 947.62,-617.68 949.28,-624.48"/>
</g>
<!-- scipy -->
<g id="node21" class="node">
<title>scipy</title><style>.edge>path:hover{stroke-width:8}</style>
<ellipse fill="#7a18dd" stroke="black" cx="737.41" cy="-533.3" rx="27" ry="18"/>
<text xml:space="preserve" text-anchor="middle" x="737.41" y="-529.8" font-family="Helvetica,sans-Serif" font-size="10.00" fill="#ffffff">scipy</text>
</g>
<!-- numpy&#45;&gt;scipy -->
<g id="edge32" class="edge">
<title>numpy&#45;&gt;scipy</title><style>.edge>path:hover{stroke-width:8}</style>
<path fill="none" stroke="black" d="M792.41,-608.93C788.82,-588.32 774.69,-569.39 761.65,-555.76"/>
<polygon fill="#06f9f9" stroke="black" points="764.43,-553.58 754.86,-549.05 759.51,-558.56 764.43,-553.58"/>
<path fill="none" stroke="black" d="M792.41,-663.93C784.41,-641.78 796.45,-634.14 792.41,-610.93"/>
</g>
<!-- pydantic -->
<g id="node20" class="node">
<title>pydantic</title><style>.edge>path:hover{stroke-width:8}</style>
<ellipse fill="#2653d9" stroke="black" cx="457.41" cy="-609.93" rx="31.72" ry="18"/>
<text xml:space="preserve" text-anchor="middle" x="457.41" y="-606.43" font-family="Helvetica,sans-Serif" font-size="10.00" fill="#ffffff">pydantic</text>
</g>
<!-- pydantic&#45;&gt;amps_simulation_core_components -->
<g id="edge33" class="edge">
<title>pydantic&#45;&gt;amps_simulation_core_components</title><style>.edge>path:hover{stroke-width:8}</style>
<path fill="none" stroke="black" d="M454.4,-591.56C452.31,-576.31 450.53,-553.63 454.41,-534.3"/>
</g>
<!-- pydantic&#45;&gt;amps_simulation_core_control_signal -->
<g id="edge34" class="edge">
<title>pydantic&#45;&gt;amps_simulation_core_control_signal</title><style>.edge>path:hover{stroke-width:8}</style>
<path fill="none" stroke="black" d="M488.93,-606.12C521.42,-601.45 570.94,-589.01 597.41,-555.93 629.4,-515.95 631.65,-454.73 628.78,-414.19"/>
<polygon fill="#2653d9" stroke="black" points="632.28,-414 627.93,-404.33 625.3,-414.6 632.28,-414"/>
</g>
<!-- pydantic&#45;&gt;amps_simulation_core_engine_settings -->
<g id="edge35" class="edge">
<title>pydantic&#45;&gt;amps_simulation_core_engine_settings</title><style>.edge>path:hover{stroke-width:8}</style>
<path fill="none" stroke="black" d="M433.91,-597.6C375.57,-569.22 227.9,-495.89 215.41,-474.68 185.99,-424.71 209.07,-356.48 229.44,-313.94"/>
<polygon fill="#2653d9" stroke="black" points="232.54,-315.57 233.86,-305.06 226.27,-312.46 232.54,-315.57"/>
</g>
<!-- scipy&#45;&gt;amps_simulation_core_engine -->
<g id="edge36" class="edge">
<title>scipy&#45;&gt;amps_simulation_core_engine</title><style>.edge>path:hover{stroke-width:8}</style>
<path fill="none" stroke="black" d="M737.75,-514.84C738.86,-498.69 742.59,-474.71 754.41,-457.68"/>
<path fill="none" stroke="black" d="M754.41,-370.56C754.35,-359.07 725.29,-281.64 716.41,-274.34"/>
<path fill="none" stroke="black" d="M754.41,-455.68C775.46,-425.32 754.6,-409.5 754.41,-372.56"/>
</g>
<!-- scipy&#45;&gt;amps_simulation_core_Simulation -->
<g id="edge37" class="edge">
<title>scipy&#45;&gt;amps_simulation_core_Simulation</title><style>.edge>path:hover{stroke-width:8}</style>
<path fill="none" stroke="black" d="M754.41,-455.68C824.04,-355.3 991.81,-492.22 1016.41,-372.56"/>
<path fill="none" stroke="black" d="M1016.41,-370.56C1021.9,-343.84 1002.79,-319.97 982.12,-302.69"/>
<polygon fill="#7a18dd" stroke="black" points="984.44,-300.06 974.42,-296.63 980.11,-305.56 984.44,-300.06"/>
</g>
<!-- scipy&#45;&gt;amps_simulation_core_simulation -->
<g id="edge38" class="edge">
<title>scipy&#45;&gt;amps_simulation_core_simulation</title><style>.edge>path:hover{stroke-width:8}</style>
<path fill="none" stroke="black" d="M754.41,-370.56C754.29,-347.9 763.16,-324.03 772.12,-305.73"/>
<polygon fill="#7a18dd" stroke="black" points="775.15,-307.49 776.65,-297 768.94,-304.27 775.15,-307.49"/>
</g>
<!-- scipy_integrate -->
<g id="node22" class="node">
<title>scipy_integrate</title><style>.edge>path:hover{stroke-width:8}</style>
<ellipse fill="#7a24d0" stroke="black" cx="858.41" cy="-533.3" rx="37.83" ry="22.63"/>
<text xml:space="preserve" text-anchor="middle" x="858.41" y="-535.8" font-family="Helvetica,sans-Serif" font-size="10.00" fill="#ffffff">scipy.</text>
<text xml:space="preserve" text-anchor="middle" x="858.41" y="-523.8" font-family="Helvetica,sans-Serif" font-size="10.00" fill="#ffffff">integrate</text>
</g>
<!-- scipy_integrate&#45;&gt;amps_simulation_core_engine -->
<g id="edge39" class="edge">
<title>scipy_integrate&#45;&gt;amps_simulation_core_engine</title><style>.edge>path:hover{stroke-width:8}</style>
<path fill="none" stroke="black" d="M830.41,-455.68C814.06,-399.87 802.09,-387.86 768.41,-340.45 755.83,-322.76 748.58,-321.7 735.41,-304.45 725.8,-291.88 728.63,-284.39 716.41,-274.34"/>
<path fill="none" stroke="black" d="M849.57,-511C843.64,-496.21 835.93,-475.96 830.41,-457.68"/>
</g>
<!-- scipy_integrate&#45;&gt;amps_simulation_core_Simulation -->
<g id="edge40" class="edge">
<title>scipy_integrate&#45;&gt;amps_simulation_core_Simulation</title><style>.edge>path:hover{stroke-width:8}</style>
<path fill="none" stroke="black" d="M962.41,-455.68C985.78,-418.34 1007.54,-415.71 1016.41,-372.56"/>
<path fill="none" stroke="black" d="M888.04,-519.05C912.05,-506.7 944.72,-485.93 962.41,-457.68"/>
</g>
<!-- scipy_integrate&#45;&gt;amps_simulation_core_simulation -->
<g id="edge41" class="edge">
<title>scipy_integrate&#45;&gt;amps_simulation_core_simulation</title><style>.edge>path:hover{stroke-width:8}</style>
<path fill="none" stroke="black" d="M830.41,-455.68C820.02,-420.23 841.3,-407.86 830.41,-372.56"/>
</g>
<!-- sympy -->
<g id="node23" class="node">
<title>sympy</title><style>.edge>path:hover{stroke-width:8}</style>
<ellipse fill="#f906bc" stroke="black" cx="847.41" cy="-609.93" rx="27.21" ry="18"/>
<text xml:space="preserve" text-anchor="middle" x="847.41" y="-606.43" font-family="Helvetica,sans-Serif" font-size="10.00" fill="#ffffff">sympy</text>
</g>
<!-- sympy&#45;&gt;amps_simulation_core_components -->
<g id="edge42" class="edge">
<title>sympy&#45;&gt;amps_simulation_core_components</title><style>.edge>path:hover{stroke-width:8}</style>
<path fill="none" stroke="black" d="M492.41,-455.68C486.75,-433.52 469.94,-415.5 452.13,-401.98"/>
<polygon fill="#f906bc" stroke="black" points="454.19,-399.15 444.02,-396.2 450.13,-404.85 454.19,-399.15"/>
<path fill="none" stroke="black" d="M825.66,-598.63C819.55,-596.09 812.82,-593.62 806.41,-591.93 742.54,-575.13 559.7,-600.98 511.41,-555.93 478.88,-525.59 503.41,-500.77 492.41,-457.68"/>
</g>
<!-- sympy&#45;&gt;amps_simulation_core_dae_model -->
<g id="edge43" class="edge">
<title>sympy&#45;&gt;amps_simulation_core_dae_model</title><style>.edge>path:hover{stroke-width:8}</style>
<path fill="none" stroke="black" d="M492.41,-455.68C476.28,-406.34 490.28,-389.54 473.41,-340.45 470.33,-331.49 466.1,-322.3 461.63,-313.73"/>
<polygon fill="#f906bc" stroke="black" points="464.71,-312.06 456.84,-304.97 458.57,-315.42 464.71,-312.06"/>
</g>
<!-- sympy&#45;&gt;amps_simulation_core_electrical_model -->
<g id="edge44" class="edge">
<title>sympy&#45;&gt;amps_simulation_core_electrical_model</title><style>.edge>path:hover{stroke-width:8}</style>
<path fill="none" stroke="black" d="M923.41,-455.68C919.95,-442.51 919.04,-427.75 919.28,-414.37"/>
<polygon fill="#f906bc" stroke="black" points="922.77,-414.69 919.67,-404.56 915.77,-414.41 922.77,-414.69"/>
</g>
<!-- sympy&#45;&gt;amps_simulation_core_engine -->
<g id="edge45" class="edge">
<title>sympy&#45;&gt;amps_simulation_core_engine</title><style>.edge>path:hover{stroke-width:8}</style>
<path fill="none" stroke="black" d="M824.95,-599.32C818.96,-596.84 812.46,-594.22 806.41,-591.93 760.27,-574.47 730.08,-596.08 701.41,-555.93 664.98,-504.94 764.64,-314.35 716.41,-274.34"/>
<path fill="none" stroke="black" d="M716.41,-272.34C704.15,-262.33 710.77,-250.7 697.41,-242.23 622.34,-194.64 365.44,-181.28 235.29,-177.55"/>
<polygon fill="#f906bc" stroke="black" points="235.47,-174.06 225.37,-177.28 235.27,-181.05 235.47,-174.06"/>
</g>
<!-- sympy&#45;&gt;amps_simulation_core_Simulation -->
<g id="edge46" class="edge">
<title>sympy&#45;&gt;amps_simulation_core_Simulation</title><style>.edge>path:hover{stroke-width:8}</style>
<path fill="none" stroke="black" d="M924.41,-532.3C948.61,-504.03 942.66,-489.22 962.41,-457.68"/>
</g>
<!-- sympy&#45;&gt;amps_simulation_core_simulation -->
<g id="edge47" class="edge">
<title>sympy&#45;&gt;amps_simulation_core_simulation</title><style>.edge>path:hover{stroke-width:8}</style>
<path fill="none" stroke="black" d="M863.6,-594.99C875.48,-584.55 891.85,-569.76 905.41,-555.93 914.37,-546.8 916.09,-544.02 924.41,-534.3"/>
<path fill="none" stroke="black" d="M923.41,-455.68C913.14,-416.55 877.16,-432.11 849.41,-402.68 838.55,-391.16 835.08,-387.68 830.41,-372.56"/>
<path fill="none" stroke="black" d="M924.41,-532.3C945.98,-507.11 931.82,-489.76 923.41,-457.68"/>
</g>
<!-- sympy&#45;&gt;amps_simulation_core_utils -->
<g id="edge48" class="edge">
<title>sympy&#45;&gt;amps_simulation_core_utils</title><style>.edge>path:hover{stroke-width:8}</style>
<path fill="none" stroke="black" d="M1054.41,-455.68C1068.84,-409.44 1071.01,-353.5 1070.42,-316.09"/>
<polygon fill="#f906bc" stroke="black" points="1073.92,-316.06 1070.18,-306.15 1066.92,-316.23 1073.92,-316.06"/>
<path fill="none" stroke="black" d="M924.41,-532.3C967.73,-481.7 1029.57,-519.49 1054.41,-457.68"/>
</g>
<!-- sympy_abc -->
<g id="node24" class="node">
<title>sympy_abc</title><style>.edge>path:hover{stroke-width:8}</style>
<ellipse fill="#b34c99" stroke="black" cx="369.41" cy="-609.93" rx="38.03" ry="18"/>
<text xml:space="preserve" text-anchor="middle" x="369.41" y="-606.43" font-family="Helvetica,sans-Serif" font-size="10.00" fill="#ffffff">sympy.abc</text>
</g>
<!-- sympy_abc&#45;&gt;amps_simulation_core_components -->
<g id="edge49" class="edge">
<title>sympy_abc&#45;&gt;amps_simulation_core_components</title><style>.edge>path:hover{stroke-width:8}</style>
<path fill="none" stroke="black" d="M454.41,-532.3C465.01,-490.02 444.76,-442.99 425.91,-410.98"/>
<polygon fill="#b34c99" stroke="black" points="429.14,-409.54 420.93,-402.84 423.17,-413.2 429.14,-409.54"/>
<path fill="none" stroke="black" d="M396.3,-596.95C418.91,-584.94 448.46,-563.95 454.41,-534.3"/>
</g>
</g>
</svg>
